# xmcd CD database file
#
# Track frame offsets:
#	150
#	24003
#	42094
#	61847
#	81574
#	97376
#	120116
#	137543
#	148810
#	175975
#	197662
#	216686
#	236007
#	250616
#	268847
#	286704
#	303763
#
# Disc length: 4481 seconds
#
# Revision: 0
# Processed by: cddbd v1.5.2PL0 Copyright (c) Steve Scherf et al.
# Submitted via: CDex 1.70beta2
#
DISCID=f1117f11
DTITLE=Ella and Louis - Stompin' at the Savoy
DYEAR=2008
DGENRE=Jazz
TTITLE0=Stompin' at the Savoy
TTITLE1=Makin' whoopee
TTITLE2=Willow weep for me
TTITLE3=I get a kick out of you
TTITLE4=I'm putting all my eggs in one basket
TTITLE5=Don't be that way
TTITLE6=They all laughed
TTITLE7=Comes love
TTITLE8=Autumn in new york
TTITLE9=I won't dance
TTITLE10=Gee baby ain't I good to you
TTITLE11=Let's call the whole thing off
TTITLE12=I've got my love to keep me warm
TTITLE13=Love is here to stay
TTITLE14=A fine romance
TTITLE15=I'll wind
TTITLE16=Learnin' the blues
EXTD=YEAR: 2008
EXTT0=
EXTT1=
EXTT2=
EXTT3=
EXTT4=
EXTT5=
EXTT6=
EXTT7=
EXTT8=
EXTT9=
EXTT10=
EXTT11=
EXTT12=
EXTT13=
EXTT14=
EXTT15=
EXTT16=
PLAYORDER=
